HIERARCHY
ROOT Hips
{
	OFFSET -3.958830 18.904000 13.208200
	CHANNELS 6 Xposition Yposition Zposition Zrotation Yrotation Xrotation 
	JOINT LHipJoint
	{
		OFFSET 0.000000 0.000000 0.000000
		CHANNELS 3 Zrotation Yrotation Xrotation
		JOINT LeftUpLeg
		{
			OFFSET 1.800000 -1.400000 0.085000
			CHANNELS 3 Zrotation Yrotation Xrotation
			JOINT LeftLeg
			{
				OFFSET 2.215000 -6.000000 0.000000
				CHANNELS 3 Zrotation Yrotation Xrotation
				JOINT LeftFoot
				{
					OFFSET 2.500000 -6.900000 0.000000
					CHANNELS 3 Zrotation Yrotation Xrotation
					JOINT LeftToeBase
					{
						OFFSET 0.200000 -0.500000 1.950000
						CHANNELS 3 Zrotation Yrotation Xrotation
						End Site
						{
							OFFSET 0.000000 0.000000 0.000000
						}
					}
				}
			}
		}
	}
	JOINT RHipJoint
	{
		OFFSET 0.000000 0.000000 0.000000
		CHANNELS 3 Zrotation Yrotation Xrotation
		JOINT RightUpLeg
		{
			OFFSET -1.800000 -1.400000 0.085000
			CHANNELS 3 Zrotation Yrotation Xrotation
			JOINT RightLeg
			{
				OFFSET -2.215000 -6.000000 0.000000
				CHANNELS 3 Zrotation Yrotation Xrotation
				JOINT RightFoot
				{
					OFFSET -2.500000 -6.900000 0.000000
					CHANNELS 3 Zrotation Yrotation Xrotation
					JOINT RightToeBase
					{
						OFFSET -0.200000 -0.500000 1.950000
						CHANNELS 3 Zrotation Yrotation Xrotation
						End Site
						{
							OFFSET 0.000000 0.000000 0.000000
						}
					}
				}
			}
		}
	}
	JOINT LowerBack
	{
		OFFSET 0.000000 0.000000 0.000000
		CHANNELS 3 Zrotation Yrotation Xrotation
		JOINT Spine
		{
			OFFSET -0.087000 1.940000 -0.288900
			CHANNELS 3 Zrotation Yrotation Xrotation
			JOINT Spine1
			{
				OFFSET 0.000000 1.950000 0.060000
				CHANNELS 3 Zrotation Yrotation Xrotation
				JOINT Neck
				{
					OFFSET 0.000000 0.000000 0.000000
					CHANNELS 3 Zrotation Yrotation Xrotation
					JOINT Neck1
					{
						OFFSET 0.000000 1.600000 0.340000
						CHANNELS 3 Zrotation Yrotation Xrotation
						JOINT Head
						{
							OFFSET 0.000000 1.667000 -0.240000
							CHANNELS 3 Zrotation Yrotation Xrotation
							End Site
							{
								OFFSET 0.000000 0.000000 0.000000
							}
						}
					}
				}
				JOINT LeftShoulder
				{
					OFFSET 0.000000 0.000000 0.000000
					CHANNELS 3 Zrotation Yrotation Xrotation
					JOINT LeftArm
					{
						OFFSET 2.700000 1.550000 -0.730000
						CHANNELS 3 Zrotation Yrotation Xrotation
						JOINT LeftForeArm
						{
							OFFSET 5.450000 0.000000 0.000000
							CHANNELS 3 Zrotation Yrotation Xrotation
							JOINT LeftHand
							{
								OFFSET 3.450000 0.000000 0.000000
								CHANNELS 3 Zrotation Yrotation Xrotation
								JOINT LeftHandIndex1
								{
									OFFSET 0.750000 0.000000 0.000000
									CHANNELS 3 Zrotation Yrotation Xrotation
									End Site
									{
										OFFSET 0.000000 0.000000 0.000000
									}
								}
							}
						}
					}
				}
				JOINT RightShoulder
				{
					OFFSET 0.000000 0.000000 0.000000
					CHANNELS 3 Zrotation Yrotation Xrotation
					JOINT RightArm
					{
						OFFSET -2.700000 1.550000 -0.730000
						CHANNELS 3 Zrotation Yrotation Xrotation
						JOINT RightForeArm
						{
							OFFSET -5.450000 0.000000 0.000000
							CHANNELS 3 Zrotation Yrotation Xrotation
							JOINT RightHand
							{
								OFFSET -3.450000 0.000000 0.000000
								CHANNELS 3 Zrotation Yrotation Xrotation
								JOINT RightHandIndex1
								{
									OFFSET -0.750000 0.000000 0.000000
									CHANNELS 3 Zrotation Yrotation Xrotation
									End Site
									{
										OFFSET 0.000000 0.000000 0.000000
									}
								}
							}
						}
					}
				}
			}
		}
	}
}
MOTION
Frames: 10
Frame Time: 0.016667
-0.095200 17.168330 -1.535620 -4.546047 3.605262 -13.065457 -15.359218 14.001735 3.440570 2.109215 -3.496647 25.390987 -2.116879 9.494021 34.284014 0.290948 9.925348 1.648263 -0.017880 -0.463900 -0.190080 18.205254 -9.338712 3.315197 13.681189 2.846444 -38.294638 -6.540989 -4.030579 30.685741 -0.372401 -3.397169 3.062673 -0.125600 1.072920 0.628120 -3.258307 -5.153792 -7.946950 5.772460 -15.225612 43.655322 -0.375847 -14.982673 5.999235 -3.417926 -4.769406 -9.110017 -12.401329 2.276463 29.532747 -0.627700 -2.417220 -21.276250 -0.614307 -12.176679 1.143283 18.405788 -11.419118 -9.483274 85.305837 -25.589213 -25.374575 -4.502188 2.392848 1.058450 0.378320 0.030840 0.404010 8.608357 8.203854 5.277042 14.718545 -8.038396 -14.789563 -63.287880 20.527225 -12.903685 1.954763 -1.540746 -0.646140 0.733360 0.465240 0.005160 
-0.099090 16.861230 -1.451700 -5.682235 1.327343 -11.688320 -15.397695 13.868544 3.383046 2.128375 -3.214684 27.091219 -1.778110 9.558353 33.393819 0.325515 9.930841 1.654877 -0.040220 -0.528220 -0.225900 18.237296 -8.761722 3.898694 16.527873 5.757030 -42.389880 -7.911141 -3.735113 34.818086 -0.527493 -3.776659 2.916803 -0.196710 1.063860 0.601850 -3.216022 -5.525608 -8.144564 7.578497 -16.215508 43.073306 0.048165 -14.861862 3.434832 -2.405262 -8.921921 -9.618356 -21.398925 5.371466 31.575323 4.093130 -3.391600 -26.030910 -4.445027 -10.989818 0.241709 28.461582 -2.235547 -6.730366 81.008566 -25.253503 -20.163723 -4.422798 2.313097 1.210850 0.241780 0.096720 0.409820 10.529322 10.912693 6.964729 -0.512048 -17.449793 -11.401346 -58.431901 20.953221 -10.261184 2.113045 -1.337480 -0.669060 0.807020 0.502020 0.022820 
-0.106080 16.600050 -1.384510 -5.323456 -0.730757 -11.220917 -15.502427 13.748854 3.429036 1.082672 -2.165885 29.072036 -1.628540 9.759169 32.585765 0.381712 9.912301 1.651803 -0.103360 -0.646260 -0.229480 18.210840 -8.140078 4.422476 16.718724 8.700813 -45.990728 -8.183837 -3.687155 40.816136 -0.694132 -4.551954 2.694223 -0.298180 0.989760 0.474720 -3.008453 -6.029072 -8.472664 6.818520 -15.053738 41.956251 0.907513 -13.616475 2.198254 -1.131736 -10.456967 -11.506438 -28.681519 8.392876 38.185335 7.950230 -4.395540 -26.055750 -5.130542 -11.803465 1.045686 33.406672 5.207923 -3.592863 76.432383 -25.768935 -16.703234 -4.322856 2.171710 1.362240 0.100220 0.123900 0.370630 8.845869 14.206204 8.598295 -8.911647 -25.448428 -8.207977 -56.311264 24.703047 -9.812756 2.171383 -1.100038 -0.735560 0.850470 0.513790 -0.021190 
-0.154890 16.452340 -1.367760 -4.840618 -0.481368 -13.530445 -15.547672 13.650373 3.453658 1.821503 -1.707404 32.674452 -1.120948 9.935743 32.034209 0.607626 9.863707 1.657474 0.062560 -0.412590 -0.093480 18.193239 -7.898842 4.644259 15.466257 10.228580 -46.894685 -8.088194 -3.851144 46.644646 -0.982052 -5.491665 2.398739 -0.252440 0.798960 0.417440 -2.914168 -6.071038 -8.654951 4.981132 -13.865703 43.449957 0.709499 -13.161799 2.662832 -0.501750 -9.742434 -12.381111 -30.128759 10.568156 44.717956 9.347910 -3.747670 -25.798430 -4.089681 -12.598672 1.854921 35.846542 9.741939 -1.971292 74.758433 -26.966139 -15.623003 -4.112906 2.212733 1.383230 -0.037810 0.270930 0.432940 6.703784 15.159618 8.726775 -11.682364 -30.422854 -6.997661 -61.672686 32.710610 -14.440507 2.218844 -1.084347 -0.627620 0.774450 0.292030 0.005040 
-0.164240 16.386240 -1.323960 -5.705107 -0.953903 -13.756225 -15.611264 13.653844 3.435919 2.775942 -2.113887 34.309144 -1.729636 10.207138 30.509196 0.698165 9.772543 1.618638 0.174950 -0.324210 0.050510 18.156006 -7.604173 4.846907 16.237187 11.538031 -46.986435 -7.768639 -4.115459 48.717697 -1.170836 -5.768638 2.269827 -0.289660 0.578540 0.464160 -2.763275 -6.376525 -8.776095 4.781020 -14.100942 43.269279 0.788097 -13.190780 2.504864 0.841411 -8.954088 -13.762472 -31.918846 14.132134 52.029080 7.529500 -1.565680 -27.390170 -5.554163 -14.379780 2.612236 38.249688 14.647134 0.054372 74.633969 -30.535692 -16.399750 -3.997981 2.263529 1.487700 -0.183020 0.432680 0.414810 5.692817 16.771851 9.679088 -13.144188 -33.596194 -5.970490 -60.899048 40.039850 -16.848024 2.218169 -1.000135 -0.513320 0.635020 0.192700 -0.033470 
-0.179210 16.430450 -1.298250 -6.018600 -0.814515 -12.932802 -15.601561 13.598060 3.380936 3.530055 -2.163703 33.893574 -2.442952 10.274634 28.773605 0.608870 9.692206 1.607923 0.164660 -0.335870 0.060240 18.174233 -7.576096 4.916000 16.132180 12.071908 -46.460129 -6.649113 -4.366370 47.122686 -1.135488 -5.460914 2.351075 -0.287480 0.570320 0.507730 -2.800013 -6.227100 -8.786508 5.779875 -13.878774 40.653495 -0.182859 -12.649752 4.676358 1.180225 -7.900672 -13.673126 -30.277616 15.185321 56.615473 5.880780 -0.360660 -27.658210 -6.331822 -14.752224 2.624857 37.048521 14.400914 0.010605 79.274721 -33.470717 -20.103425 -4.041785 2.181653 1.515170 -0.165540 0.464420 0.379240 5.768894 16.403961 9.406752 -11.731843 -34.889406 -6.704224 -64.710755 47.128582 -22.216242 2.059760 -0.819378 -0.506720 0.653350 0.250440 -0.060910 
-0.192120 16.567350 -1.286230 -5.989545 0.470794 -12.379616 -15.582762 13.723179 3.393353 3.608361 -2.319387 32.983387 -0.750122 9.407439 28.423698 0.528455 9.415584 1.659478 0.206990 -0.275550 0.106970 18.144676 -7.839469 4.699384 15.072105 10.922072 -44.592176 -4.653991 -4.805929 43.040475 -1.018708 -4.747147 2.553439 -0.261710 0.508360 0.542000 -2.791757 -6.090643 -8.680707 5.594293 -13.526494 38.469699 -0.744690 -12.472934 6.897110 1.279237 -6.988029 -13.157649 -28.139052 14.756015 59.858847 4.421690 0.216760 -30.186460 -7.594669 -14.971748 2.257944 35.148694 12.524472 -0.742027 87.189796 -38.312227 -27.728469 -3.975352 2.125655 1.519710 -0.184260 0.511270 0.354490 6.897968 15.926389 8.968853 -8.168032 -35.724527 -8.838717 -68.559668 58.093380 -31.041405 1.804055 -0.479018 -0.463230 0.627520 0.245840 -0.075510 
-0.178180 16.773650 -1.271670 -6.652738 2.144514 -12.026292 -15.557529 13.984654 3.399737 4.492148 -2.848837 31.602231 0.868315 8.563711 27.645373 0.361731 9.234345 1.745610 0.131220 -0.392360 0.109920 18.089742 -8.213771 4.349904 14.063617 9.075885 -41.146595 -2.303314 -5.268697 37.062949 -0.819067 -3.821085 2.869179 -0.294580 0.564420 0.548380 -2.768395 -6.047782 -8.542537 6.075513 -13.514559 37.486313 -0.669001 -12.374807 9.184595 1.435516 -5.500117 -13.209732 -23.316165 12.334373 61.696812 2.008230 0.649520 -31.133380 -7.678726 -15.392892 2.694853 29.629973 10.835780 -2.300507 97.936323 -42.670869 -40.008247 -3.966691 1.938495 1.566520 -0.139890 0.484400 0.319600 6.635637 15.194954 9.056668 1.591381 -32.692882 -13.749622 -71.001797 62.029786 -36.463557 1.466551 -0.098797 -0.545800 0.689710 0.315400 -0.120760 
-0.166900 17.017230 -1.247500 -6.603501 0.644492 -10.778764 -15.586219 14.104771 3.434795 4.627229 -2.139710 29.553437 -0.059883 8.555321 25.298886 0.433368 8.801933 1.929253 0.157330 -0.280960 0.091500 18.036484 -8.350058 4.209683 14.457620 8.450255 -37.407470 -1.473306 -4.518071 30.385008 -0.621027 -2.826571 3.300500 -0.268740 0.563030 0.519040 -2.638408 -6.055597 -8.566290 5.544357 -12.227844 36.024662 0.110747 -11.205820 10.503352 1.682135 -4.724358 -13.630107 -20.450296 11.052988 60.995162 -0.213350 1.667640 -27.744780 -8.525959 -15.582072 4.295782 21.944922 9.459088 -3.062004 109.274909 -46.782043 -56.862048 -3.843575 1.882097 1.432760 -0.094100 0.487040 0.388080 6.970074 15.650611 8.624913 8.640869 -30.786555 -18.380610 -63.851145 74.447315 -41.164116 1.177916 0.365318 -0.479520 0.662750 0.207520 -0.053790 
-0.159090 17.273780 -1.237540 -6.540934 0.435487 -9.125979 -15.467423 14.151266 3.364520 4.571547 -1.737033 25.890597 -0.101069 8.306049 25.468579 0.326806 8.586954 2.014456 -0.094810 -0.593050 -0.084060 18.093388 -8.753903 4.051227 14.279653 7.286364 -34.025642 -0.527773 -4.077241 22.491394 -0.378541 -1.928577 3.669333 -0.452270 0.695160 0.554420 -2.883222 -5.513531 -8.516027 6.630443 -12.053864 35.047963 -1.053819 -10.631331 10.198122 1.922416 -3.409686 -15.754221 -16.240381 8.823629 59.865221 -1.495810 2.199710 -23.611970 -9.196444 -16.745055 6.893267 13.604707 9.860223 -3.107945 119.575378 -51.137153 -79.696350 -3.923388 1.905103 1.426560 0.006220 0.390800 0.312290 6.606934 15.811970 10.514518 21.015563 -27.175521 -22.481119 -34.063183 79.103556 -27.515057 1.364960 -0.517788 -0.536860 0.658420 0.403200 -0.067860 
